<?xml version="1.0" standalone="no"?>
<!DOCTYPE svg PUBLIC "-//W3C//DTD SVG 20010904//EN"
 "http://www.w3.org/TR/2001/REC-SVG-20010904/DTD/svg10.dtd">
<svg version="1.0" xmlns="http://www.w3.org/2000/svg"
 width="576.000000pt" height="576.000000pt" viewBox="0 0 576.000000 576.000000"
 preserveAspectRatio="xMidYMid meet">
<metadata>
Created by potrace 1.16, written by Peter Selinger 2001-2019
</metadata>
<g transform="translate(0.000000,576.000000) scale(0.100000,-0.100000)"
fill="#000000" stroke="none">
<path d="M0 2880 l0 -2880 2880 0 2880 0 0 2880 0 2880 -2880 0 -2880 0 0
-2880z m2060 1210 l0 -390 -390 0 -390 0 0 390 0 390 390 0 390 0 0 -390z
m440 335 l0 -55 215 0 215 0 0 55 0 55 115 0 115 0 0 -55 0 -55 50 0 50 0 0
55 0 55 60 0 60 0 0 -60 0 -60 -55 0 -55 0 0 -50 0 -50 55 0 55 0 0 -60 0 -60
-55 0 -55 0 0 -55 0 -55 -55 0 -55 0 0 -55 0 -55 -55 0 -55 0 0 -50 0 -50 55
0 55 0 0 -110 0 -110 50 0 50 0 0 110 0 110 60 0 60 0 0 -110 0 -110 50 0 50
0 0 159 0 160 -52 3 -53 3 -3 58 -3 57 56 0 55 0 0 165 0 165 60 0 60 0 0
-385 0 -385 110 0 110 0 0 -55 0 -55 105 0 105 0 0 55 0 55 170 0 170 0 0
-115 0 -116 -112 3 -113 3 -3 53 -3 52 -50 0 -49 0 0 -55 0 -56 -112 3 -113 3
-3 53 -3 52 -110 0 -109 0 0 55 0 55 -50 0 -50 0 0 -110 0 -110 -110 0 -110 0
0 -55 0 -55 -220 0 -220 0 0 -110 0 -110 -60 0 -60 0 0 55 0 55 -55 0 -55 0 0
115 0 115 55 0 55 0 0 55 0 55 60 0 60 0 0 -55 0 -55 105 0 105 0 0 105 0 105
-110 0 -110 0 0 115 0 115 55 0 55 0 0 110 0 110 55 0 55 0 0 50 0 50 -55 0
-55 0 0 55 0 55 -50 0 -50 0 0 -55 0 -55 -110 0 -110 0 0 -55 0 -55 -60 0 -60
0 0 55 0 55 -50 0 -50 0 0 -160 0 -160 55 0 55 0 0 -55 0 -55 50 0 50 0 0 110
0 110 60 0 60 0 0 -115 0 -115 -55 0 -55 0 0 -55 0 -55 -55 0 -55 0 0 -55 0
-55 -60 0 -60 0 0 60 0 60 55 0 55 0 0 50 0 50 -55 0 -55 0 0 55 0 55 -50 0
-50 0 0 -165 0 -165 -60 0 -60 0 0 170 0 170 55 0 55 0 0 105 0 105 -55 0 -55
0 0 170 0 170 110 0 110 0 0 55 0 55 60 0 60 0 0 -55z m1980 -335 l0 -390
-387 2 -388 3 -3 388 -2 387 390 0 390 0 0 -390z m-3080 -600 l0 -110 50 0 50
0 0 55 0 55 60 0 60 0 0 -55 0 -55 105 0 105 0 0 55 0 55 55 0 55 0 0 55 0 55
60 0 60 0 0 -60 0 -60 -55 0 -55 0 0 -50 0 -50 220 0 220 0 0 -55 0 -55 55 0
55 0 0 -170 0 -170 -55 0 -55 0 0 -50 0 -50 55 0 55 0 0 -55 0 -55 55 0 55 0
0 -165 0 -165 110 0 110 0 0 -55 0 -55 110 0 110 0 0 -60 0 -60 -55 0 -55 0 0
-55 0 -55 -60 0 -60 0 0 110 0 110 -105 0 -105 0 0 -55 0 -55 -55 0 -55 0 0
-55 0 -55 -170 0 -170 0 0 55 0 55 -110 0 -110 0 0 55 0 55 -50 0 -50 0 0 -55
0 -55 -60 0 -60 0 0 55 0 55 -110 0 -110 0 0 55 0 55 -55 0 -55 0 0 -110 0
-110 -55 0 -55 0 0 280 0 281 58 -3 57 -3 -2 -107 -3 -108 55 0 55 0 0 -55 0
-55 55 0 55 0 0 55 0 55 220 0 220 0 0 50 0 50 -165 0 -165 0 0 60 0 60 170 0
170 0 0 -55 0 -55 165 0 165 0 0 -110 0 -110 50 0 50 0 0 160 0 160 -165 0
-165 0 0 110 0 110 -50 0 -50 0 0 -55 0 -55 -60 0 -60 0 0 60 0 60 55 0 55 0
0 50 0 50 -105 0 -105 0 0 -110 0 -110 -60 0 -60 0 0 115 0 115 55 0 55 0 0
105 0 105 -105 0 -105 0 0 -55 0 -55 -55 0 -55 0 0 -50 0 -50 55 0 55 0 0 -60
0 -60 -55 0 -55 0 0 -55 0 -55 -115 0 -115 0 0 60 0 60 110 0 110 0 0 50 0 50
-55 0 -55 0 0 55 0 55 -55 0 -55 0 0 60 0 60 55 0 55 0 0 50 0 50 -55 0 -55 0
0 115 0 115 60 0 60 0 0 -110z m2200 -330 l0 -110 50 0 50 0 0 110 0 110 115
0 115 0 0 -110 0 -110 55 0 55 0 0 -55 0 -55 110 0 110 0 0 55 0 55 55 0 55 0
0 55 0 55 55 0 55 0 0 -115 0 -115 -110 0 -110 0 0 -160 0 -160 110 0 110 0 0
-115 0 -115 -55 0 -55 0 0 55 0 55 -110 0 -110 0 0 -55 0 -55 -55 0 -55 0 0
-105 0 -105 49 0 50 0 3 53 3 52 168 3 167 2 0 -60 0 -60 -165 0 -165 0 0 -50
0 -50 55 0 55 0 0 -60 0 -60 -110 0 -110 0 0 -50 0 -50 55 0 55 0 0 -55 0 -55
110 0 110 0 0 -115 0 -115 -55 0 -55 0 0 -110 0 -110 -335 0 -335 0 0 220 0
220 -105 0 -105 0 0 -49 0 -50 53 -3 52 -3 3 -167 2 -168 -170 0 -170 0 0 55
0 55 110 0 110 0 0 110 0 110 -50 0 -50 0 0 -55 0 -55 -110 0 -110 0 0 -55 0
-55 -55 0 -55 0 0 -55 0 -55 -115 0 -115 0 0 55 0 55 -50 0 -50 0 0 -55 0 -55
-60 0 -60 0 0 55 0 55 55 0 55 0 0 55 0 55 60 0 60 0 0 -55 0 -55 105 0 105 0
0 110 0 110 -110 0 -110 0 0 55 0 55 -50 0 -50 0 0 -55 0 -55 -55 0 -55 0 0
-55 0 -55 -115 0 -115 0 0 115 0 115 165 0 165 0 0 50 0 50 -110 0 -110 0 0
60 0 60 110 0 110 0 0 55 0 55 60 0 60 0 0 -60 0 -60 -55 0 -55 0 0 -50 0 -50
105 0 105 0 0 55 0 55 170 0 170 0 0 -110 0 -110 105 0 105 0 0 105 0 105 -55
0 -55 0 0 55 0 55 -55 0 -55 0 0 115 0 115 55 0 55 0 0 55 0 55 55 0 55 0 0
50 0 50 -110 0 -110 0 0 55 0 55 -55 0 -55 0 0 55 0 55 -55 0 -55 0 0 60 0 60
60 0 60 0 0 -55 0 -55 105 0 105 0 0 50 0 50 -55 0 -55 0 0 55 0 55 -55 0 -55
0 0 55 0 55 -55 0 -55 0 0 60 0 60 115 0 115 0 0 -110 0 -110 105 0 105 0 0
110 0 110 55 0 55 0 0 55 0 55 60 0 60 0 0 -110z m-660 -605 l0 -55 55 0 55 0
0 -60 0 -60 -60 0 -60 0 0 55 0 55 -110 0 -110 0 0 60 0 60 115 0 115 0 0 -55z
m-882 -887 l2 -388 -390 0 -390 0 0 390 0 390 388 -2 387 -3 3 -387z m332
-333 l0 -55 -115 0 -115 0 0 55 0 55 115 0 115 0 0 -55z"/>
<path d="M1400 4095 l0 -265 265 0 265 0 0 265 0 265 -265 0 -265 0 0 -265z
m440 -5 l0 -170 -170 0 -170 0 0 170 0 170 170 0 170 0 0 -170z"/>
<path d="M3050 4200 l0 -50 105 0 105 0 0 50 0 50 -105 0 -105 0 0 -50z"/>
<path d="M3830 4095 l0 -265 265 0 265 0 0 265 0 265 -265 0 -265 0 0 -265z
m430 -5 l0 -170 -167 2 -168 3 -3 168 -2 167 170 0 170 0 0 -170z"/>
<path d="M2060 2435 l0 -55 -55 0 -55 0 0 -50 0 -50 110 0 110 0 0 -55 0 -55
50 0 50 0 0 105 0 105 -55 0 -55 0 0 55 0 55 -50 0 -50 0 0 -55z"/>
<path d="M3380 2880 l0 -50 55 0 55 0 0 -110 0 -110 55 0 55 0 0 -60 0 -60
-55 0 -55 0 0 -50 0 -50 270 0 270 0 0 50 0 50 -165 0 -165 0 0 60 0 60 55 0
55 0 0 160 0 160 -50 0 -50 0 0 -55 0 -55 -60 0 -60 0 0 55 0 55 -105 0 -105
0 0 -50z"/>
<path d="M3380 2325 l0 -55 -55 0 -55 0 0 -50 0 -50 55 0 55 0 0 -55 0 -55 50
0 50 0 0 160 0 160 -50 0 -50 0 0 -55z"/>
<path d="M3600 2000 l0 -160 160 0 160 0 0 160 0 160 -160 0 -160 0 0 -160z"/>
<path d="M2940 1725 l0 -105 105 0 105 0 0 50 0 50 -55 0 -55 0 0 55 0 55 -50
0 -50 0 0 -105z"/>
<path d="M1400 1665 l0 -265 265 0 265 0 0 265 0 265 -265 0 -265 0 0 -265z
m438 3 l2 -168 -170 0 -170 0 0 170 0 170 168 -2 167 -3 3 -167z"/>
</g>
</svg>
